<svg xmlns="http://www.w3.org/2000/svg" width="1000" height="900" viewBox="0 0 1000 900">
  <rect width="1000" height="900" fill="#E8EDE7"/>

  <g transform="translate(40, 40)">
    <rect width="280" height="820" rx="30" fill="#F9FBF9" stroke="#DDE2D8"/>
    <circle cx="140" cy="80" r="40" fill="#DDE2D8"/>
    <text x="140" y="145" font-family="Inter, sans-serif" font-size="18" font-weight="700" fill="#2D362B" text-anchor="middle">Project Owner</text>
    
    <g transform="translate(30, 200)">
      <rect width="220" height="45" rx="15" fill="#DDE2D8" opacity="0.4"/>
      <text x="20" y="28" font-family="Inter, sans-serif" font-size="14" fill="#5A6658">Profile Info</text>
      
      <g transform="translate(0, 60)">
        <rect width="220" height="45" rx="15" fill="#768D71"/>
        <text x="20" y="28" font-family="Inter, sans-serif" font-size="14" font-weight="600" fill="#F9FBF9">AI Configuration</text>
      </g>
      
      <g transform="translate(0, 120)">
        <text x="20" y="28" font-family="Inter, sans-serif" font-size="14" fill="#5A6658">Security &amp; Keys</text>
      </g>
    </g>
    
    <text x="140" y="780" font-family="Inter, sans-serif" font-size="14" font-weight="600" fill="#768D71" text-anchor="middle">← Back to Dashboard</text>
  </g>

  <g transform="translate(350, 40)">
    <rect width="610" height="820" rx="30" fill="#F9FBF9" stroke="#DDE2D8"/>
    
    <text x="40" y="50" font-family="Inter, sans-serif" font-size="24" font-weight="700" fill="#2D362B">AI Workforce Settings</text>
    
    <g transform="translate(40, 100)">
      <text x="0" y="0" font-family="Inter, sans-serif" font-size="14" font-weight="700" fill="#2D362B">Model Provider Selection</text>
      <g transform="translate(0, 20)">
        <rect width="120" height="60" rx="12" fill="#F9FBF9" stroke="#768D71" stroke-width="2"/>
        <text x="60" y="35" font-family="Inter, sans-serif" font-size="12" font-weight="700" fill="#768D71" text-anchor="middle">OpenAI</text>
        
        <rect x="135" width="120" height="60" rx="12" fill="#F9FBF9" stroke="#DDE2D8"/>
        <text x="195" y="35" font-family="Inter, sans-serif" font-size="12" fill="#5A6658" text-anchor="middle">Anthropic</text>
        
        <rect x="270" width="120" height="60" rx="12" fill="#F9FBF9" stroke="#DDE2D8"/>
        <text x="330" y="35" font-family="Inter, sans-serif" font-size="12" fill="#5A6658" text-anchor="middle">Gemini</text>
        
        <rect x="405" width="120" height="60" rx="12" fill="#F9FBF9" stroke="#DDE2D8"/>
        <text x="465" y="35" font-family="Inter, sans-serif" font-size="12" fill="#5A6658" text-anchor="middle">Local (Ollama)</text>
      </g>
    </g>

    <g transform="translate(40, 230)">
      <text x="0" y="0" font-family="Inter, sans-serif" font-size="14" font-weight="700" fill="#2D362B">Spending Controls</text>
      <g transform="translate(0, 20)">
        <text x="0" y="15" font-family="Inter, sans-serif" font-size="12" fill="#5A6658">Hard Monthly Limit ($)</text>
        <rect y="25" width="240" height="45" rx="12" fill="#DDE2D8" opacity="0.4"/>
        <text x="15" y="53" font-family="Inter, sans-serif" font-size="14" fill="#2D362B">50.00</text>
        
        <text x="280" y="15" font-family="Inter, sans-serif" font-size="12" fill="#5A6658">Auto-Kill processes on limit</text>
        <rect x="280" y="25" width="50" height="26" rx="13" fill="#768D71"/>
        <circle cx="317" cy="38" r="10" fill="#F9FBF9"/>
      </g>
    </g>

    <g transform="translate(40, 370)">
      <text x="0" y="0" font-family="Inter, sans-serif" font-size="14" font-weight="700" fill="#2D362B">Agent Autonomy Level</text>
      
      <g transform="translate(0, 25)">
        <rect width="530" height="60" rx="15" fill="#E8F2E7" stroke="#768D71"/>
        <circle cx="30" cy="30" r="10" fill="#768D71"/>
        <text x="55" y="28" font-family="Inter, sans-serif" font-size="14" font-weight="700" fill="#2D362B">Strict Approval</text>
        <text x="55" y="45" font-family="Inter, sans-serif" font-size="11" fill="#768D71">Agents ask permission for every external action.</text>
      </g>

      <g transform="translate(0, 95)">
        <rect width="530" height="60" rx="15" fill="#F9FBF9" stroke="#DDE2D8"/>
        <circle cx="30" cy="30" r="10" stroke="#DDE2D8" fill="none" stroke-width="2"/>
        <text x="55" y="28" font-family="Inter, sans-serif" font-size="14" font-weight="700" fill="#5A6658">Autonomous</text>
        <text x="55" y="45" font-family="Inter, sans-serif" font-size="11" fill="#9BA699">Agents only ask for help on undefined decision blocks.</text>
      </g>
    </g>

    <g transform="translate(40, 580)">
      <text x="0" y="0" font-family="Inter, sans-serif" font-size="14" font-weight="700" fill="#2D362B">Team Dynamics</text>
      
      <g transform="translate(0, 30)">
        <text x="0" y="15" font-family="Inter, sans-serif" font-size="13" fill="#5A6658">Allow Inter-Agent Collaboration</text>
        <rect x="480" y="0" width="50" height="26" rx="13" fill="#768D71"/>
        <circle cx="517" cy="13" r="10" fill="#F9FBF9"/>
      </g>

      <g transform="translate(0, 75)">
        <text x="0" y="15" font-family="Inter, sans-serif" font-size="13" fill="#5A6658">Mandatory Peer Review (Criticism)</text>
        <rect x="480" y="0" width="50" height="26" rx="13" fill="#768D71"/>
        <circle cx="517" cy="13" r="10" fill="#F9FBF9"/>
      </g>
    </g>

    <g transform="translate(40, 740)">
      <rect width="530" height="50" rx="15" fill="#768D71"/>
      <text x="265" y="30" font-family="Inter, sans-serif" font-size="15" font-weight="700" fill="#F9FBF9" text-anchor="middle">Save Global Configurations</text>
    </g>
  </g>
</svg>