<svg xmlns="http://www.w3.org/2000/svg" width="1200" height="900" viewBox="0 0 1200 900">
  <rect width="1200" height="900" fill="#E8EDE7"/>

  <g transform="translate(40, 30)">
    <text x="0" y="25" font-family="Inter, sans-serif" font-size="24" font-weight="700" fill="#2D362B">Team Ready - Dashboard</text>
    
    <g transform="translate(300, 5)">
      <rect width="220" height="30" rx="15" fill="#F9FBF9" stroke="#768D71" stroke-width="1"/>
      <text x="15" y="20" font-family="Inter, sans-serif" font-size="11" font-weight="600" fill="#768D71">AGENT CRITICISM MODE</text>
      <rect x="175" y="6" width="35" height="18" rx="9" fill="#768D71"/>
      <circle cx="199" cy="15" r="6" fill="#F9FBF9"/>
    </g>

    <g transform="translate(730, 0)">
      <rect width="120" height="40" rx="12" fill="#768D71"/>
      <text x="60" y="25" font-family="Inter, sans-serif" font-size="13" font-weight="600" fill="#F9FBF9" text-anchor="middle">+ New Project</text>
      
      <rect x="135" width="130" height="40" rx="12" fill="#DDE2D8"/>
      <text x="200" y="25" font-family="Inter, sans-serif" font-size="13" font-weight="600" fill="#5A6658" text-anchor="middle">Manage Projects</text>
      
      <g transform="translate(305, 0)">
        <rect width="40" height="40" rx="12" fill="#F9FBF9" stroke="#DDE2D8" stroke-width="1"/>
        <circle cx="20" cy="16" r="5" fill="#768D71"/>
        <path d="M10 32C10 27 14.5 24 20 24C25.5 24 30 27 30 32" fill="none" stroke="#768D71" stroke-width="2" stroke-linecap="round"/>
      </g>
    </g>
  </g>

  <g transform="translate(40, 100)">
    <rect width="280" height="320" rx="25" fill="#F9FBF9" stroke="#DDE2D8"/>
    <text x="20" y="35" font-family="Inter, sans-serif" font-size="16" font-weight="700" fill="#2D362B">Task List (LLM Marked)</text>
    <g transform="translate(20, 65)" font-family="Inter, sans-serif" font-size="13">
      <rect width="18" height="18" rx="4" fill="#768D71"/>
      <text x="30" y="14" fill="#5A6658">Design Login Screen</text>
      <rect y="40" width="18" height="18" rx="4" fill="#768D71"/>
      <text x="30" y="54" fill="#5A6658">Implement API Client</text>
      <rect y="80" width="18" height="18" rx="4" fill="#DDE2D8" stroke="#768D71"/>
      <text x="30" y="94" fill="#5A6658">Write Unit Tests</text>
    </g>

    <rect y="340" width="280" height="390" rx="25" fill="#F9FBF9" stroke="#DDE2D8"/>
    <text x="20" y="375" font-family="Inter, sans-serif" font-size="16" font-weight="700" fill="#2D362B">AI Employee Logs</text>
    <g transform="translate(20, 405)" font-family="Inter, sans-serif" font-size="12" fill="#5A6658">
      <text y="0">• E1 edited file main.py</text>
      <text y="25">• E2 discussed API integration</text>
      <text y="50">• E3 reviewed PR #45</text>
    </g>
  </g>

  <g transform="translate(340, 100)">
    <rect width="480" height="520" rx="25" fill="#F9FBF9" stroke="#DDE2D8"/>
    <text x="20" y="35" font-family="Inter, sans-serif" font-size="16" font-weight="700" fill="#2D362B">Task Flow Chart</text>
    <g transform="translate(50, 120)">
      <rect width="110" height="40" rx="10" stroke="#768D71" fill="none"/>
      <text x="55" y="25" font-family="Inter, sans-serif" font-size="11" text-anchor="middle">UI Design</text>
      <path d="M110 20 L160 20" stroke="#768D71" stroke-width="1" fill="none"/>
      <rect x="160" width="110" height="40" rx="10" fill="#768D71"/>
      <text x="215" y="25" font-family="Inter, sans-serif" font-size="11" fill="#F9FBF9" text-anchor="middle">API Integration</text>
    </g>
  </g>

  <g transform="translate(840, 100)">
    <rect width="320" height="730" rx="25" fill="#F9FBF9" stroke="#DDE2D8"/>
    
    <g transform="translate(20, 25)">
      <text x="0" y="15" font-family="Inter, sans-serif" font-size="16" font-weight="700" fill="#2D362B">Client Chat</text>
      <g transform="translate(165, -5)">
        <rect width="115" height="30" rx="8" fill="#768D71" opacity="0.1" stroke="#768D71"/>
        <text x="57" y="20" font-family="Inter, sans-serif" font-size="10" font-weight="700" fill="#768D71" text-anchor="middle">⛶ FULL SCREEN</text>
      </g>
    </g>

    <g transform="translate(15, 80)">
      <path d="M0 10 Q0 0 10 0 L180 0 Q190 0 190 10 L190 40 Q190 50 180 50 L10 50 Q0 50 0 40 Z" fill="#768D71"/>
      <text x="12" y="22" font-family="Inter, sans-serif" font-size="11" fill="#F9FBF9">System online. Waiting for input.</text>
      
      <g transform="translate(100, 70)">
        <path d="M0 10 Q0 0 10 0 L180 0 Q190 0 190 10 L190 40 Q190 50 180 50 L10 50 Q0 50 0 40 Z" fill="#E8F2E7" stroke="#DDE2D8"/>
        <text x="12" y="22" font-family="Inter, sans-serif" font-size="11" fill="#2D362B">Start the initial audit.</text>
        <text x="160" y="-8" font-family="Inter, sans-serif" font-size="9" font-weight="700" fill="#768D71">BOSS</text>
      </g>
    </g>

    <g transform="translate(15, 650)">
      <rect width="290" height="60" rx="18" fill="#F0F4F0" stroke="#DDE2D8"/>
      
      <g transform="translate(15, 18)">
        <path d="M12 4 L12 14 C12 16.2 10.2 18 8 18 C5.8 18 4 16.2 4 14 L4 6 C4 4.9 4.9 4 6 4 C7.1 4 8 4.9 8 6 L8 14 C8 14.6 7.6 15 7 15 C6.4 15 6 14.6 6 14 L6 6" 
              fill="none" stroke="#5A6658" stroke-width="1.5" stroke-linecap="round" stroke-linejoin="round"
              transform="scale(1.2) translate(-2, -2)"/>
      </g>
      
      <text x="50" y="35" font-family="Inter, sans-serif" font-size="13" fill="#9BA699">Message agents...</text>
      <rect x="240" y="12" width="35" height="35" rx="10" fill="#768D71"/>
      <path d="M252 24 L262 30 L252 36" fill="none" stroke="white" stroke-width="2"/>
    </g>
  </g>

  <g transform="translate(340, 640)">
    <rect width="230" height="190" rx="25" fill="#768D71"/>
    <text x="115" y="100" font-family="Inter, sans-serif" font-size="18" font-weight="700" fill="#F9FBF9" text-anchor="middle">Start All Agents</text>
    <rect x="250" width="230" height="190" rx="25" fill="#F9FBF9" stroke="#EF4444" stroke-width="1"/>
    <text x="365" y="100" font-family="Inter, sans-serif" font-size="18" font-weight="700" fill="#EF4444" text-anchor="middle">Stop All Agents</text>
  </g>
</svg>