<svg xmlns="http://www.w3.org/2000/svg" width="1000" height="900" viewBox="0 0 1000 900">
  <rect width="1000" height="900" fill="#E8EDE7"/>

  <g transform="translate(40, 40)">
    <rect width="280" height="820" rx="30" fill="#F9FBF9" stroke="#DDE2D8"/>
    
    <g transform="translate(0, 60)">
      <circle cx="140" cy="40" r="45" fill="#768D71"/>
      <text x="140" y="47" font-family="Inter, sans-serif" font-size="28" fill="#F9FBF9" text-anchor="middle">JD</text>
      <text x="140" y="115" font-family="Inter, sans-serif" font-size="18" font-weight="700" fill="#2D362B" text-anchor="middle">John Doe</text>
      <text x="140" y="135" font-family="Inter, sans-serif" font-size="12" fill="#768D71" text-anchor="middle">Premium Plan</text>
    </g>
    
    <g transform="translate(30, 240)">
      <rect width="220" height="45" rx="15" fill="#768D71"/>
      <text x="20" y="28" font-family="Inter, sans-serif" font-size="14" font-weight="600" fill="#F9FBF9">Profile Info</text>
      
      <g transform="translate(0, 60)">
        <text x="20" y="28" font-family="Inter, sans-serif" font-size="14" fill="#5A6658">AI Configuration</text>
      </g>
      
      <g transform="translate(0, 120)">
        <text x="20" y="28" font-family="Inter, sans-serif" font-size="14" fill="#5A6658">Security &amp; Keys</text>
      </g>
    </g>
    
    <text x="140" y="780" font-family="Inter, sans-serif" font-size="14" font-weight="600" fill="#768D71" text-anchor="middle">← Back to Dashboard</text>
  </g>

  <g transform="translate(350, 40)">
    <rect width="610" height="820" rx="30" fill="#F9FBF9" stroke="#DDE2D8"/>
    
    <text x="40" y="50" font-family="Inter, sans-serif" font-size="24" font-weight="700" fill="#2D362B">Personal Details</text>

    <g transform="translate(40, 100)">
      <g>
        <text x="0" y="0" font-family="Inter, sans-serif" font-size="12" font-weight="600" fill="#5A6658">Full Name</text>
        <rect y="10" width="530" height="45" rx="12" fill="#DDE2D8" opacity="0.3"/>
        <text x="15" y="38" font-family="Inter, sans-serif" font-size="14" fill="#2D362B">John Doe</text>
      </g>

      <g transform="translate(0, 80)">
        <text x="0" y="0" font-family="Inter, sans-serif" font-size="12" font-weight="600" fill="#5A6658">Email Address</text>
        <rect y="10" width="530" height="45" rx="12" fill="#DDE2D8" opacity="0.3"/>
        <text x="15" y="38" font-family="Inter, sans-serif" font-size="14" fill="#2D362B">john.doe@example.com</text>
      </g>
    </g>

    <g transform="translate(40, 300)">
      <text x="0" y="0" font-family="Inter, sans-serif" font-size="16" font-weight="700" fill="#2D362B">Subscription Plan</text>
      
      <rect y="20" width="530" height="100" rx="20" fill="#E8F2E7" stroke="#768D71"/>
      <text x="25" y="55" font-family="Inter, sans-serif" font-size="18" font-weight="700" fill="#2D362B">Enterprise AI Plus</text>
      <text x="25" y="80" font-family="Inter, sans-serif" font-size="13" fill="#768D71">Unlimited Agents • Priority Model Access • $199/mo</text>
      
      <rect x="400" y="45" width="100" height="35" rx="10" fill="#768D71"/>
      <text x="450" y="67" font-family="Inter, sans-serif" font-size="11" font-weight="700" fill="#F9FBF9" text-anchor="middle">UPGRADE</text>
    </g>

    <g transform="translate(40, 450)">
      <text x="0" y="0" font-family="Inter, sans-serif" font-size="16" font-weight="700" fill="#2D362B">Global Spending Limit</text>
      <text x="0" y="25" font-family="Inter, sans-serif" font-size="13" fill="#768D71">Maximum dollar cap across all active projects.</text>
      
      <g transform="translate(0, 50)">
        <rect width="530" height="80" rx="20" fill="#F9FBF9" stroke="#DDE2D8" stroke-dasharray="4"/>
        <text x="25" y="35" font-family="Inter, sans-serif" font-size="12" fill="#5A6658">Current Month Spend</text>
        <text x="25" y="60" font-family="Inter, sans-serif" font-size="22" font-weight="700" fill="#2D362B">$124.50</text>
        <text x="505" y="60" font-family="Inter, sans-serif" font-size="14" fill="#9BA699" text-anchor="end">Limit: $500.00</text>
        
        <rect x="150" y="50" width="220" height="8" rx="4" fill="#DDE2D8"/>
        <rect x="150" y="50" width="55" height="8" rx="4" fill="#768D71"/>
      </g>
    </g>

    <g transform="translate(40, 680)">
      <rect width="530" height="55" rx="15" fill="#768D71"/>
      <text x="265" y="34" font-family="Inter, sans-serif" font-size="15" font-weight="700" fill="#F9FBF9" text-anchor="middle">Update Profile</text>
      
      <text x="265" y="90" font-family="Inter, sans-serif" font-size="14" font-weight="600" fill="#EF4444" text-anchor="middle">Logout from all devices</text>
    </g>
  </g>
</svg>